<svg xmlns="http://www.w3.org/2000/svg" width="500" height="500"><path fill="#222" d="M0 0h500v500H0z"/><g fill="#FFF"><path d="M155.321 153.708c-7.42 0-13.435-6.018-13.435-13.442H95.861c0 7.424-6.014 13.442-13.434 13.442H70.134V296.72h235.55V153.711h-150.18zm-13.417 42.334h-46.03V176.02h46.025v20.02zm80.9 79.227c-27.269 0-49.455-22.196-49.455-49.48 0-27.285 22.186-48.339 49.455-48.339 27.27 0 49.456 21.054 49.456 48.339s-22.185 49.48-49.456 49.48zm26.587-49.48c0 14.667-11.927 26.6-26.586 26.6-14.659 0-26.585-11.934-26.585-26.6 0-14.668 11.926-26.6 26.585-26.6s26.586 11.932 26.586 26.6zm184.06-83.17L373.95 296.36 326.057 277.8v-26.202l33.94 13.151 41.869-108.172L244.968 95.78l-14.542 37.569h-26.183l26.773-69.17 202.433 78.442z"/><g font-family="VomZom" font-size="27.431" style="letter-spacing:0;word-spacing:0"><path d="M96.46 355.698c-7.51.187-13.752 2.766-18.723 7.738s-7.55 11.212-7.737 18.722V430h10.513v-21.263H96.46c7.516-.191 13.776-2.79 18.782-7.796s7.604-11.266 7.796-18.782c-.192-7.51-2.79-13.752-7.796-18.723s-11.266-7.55-18.782-7.737zm-15.947 42.525v-16.065c.11-4.54 1.661-8.305 4.651-11.296 2.99-2.99 6.755-4.54 11.296-4.65 4.597.11 8.397 1.66 11.4 4.65 3.001 2.99 4.557 6.756 4.665 11.296-.108 4.597-1.664 8.397-4.666 11.4-3.002 3.002-6.802 4.557-11.399 4.665zM129.766 408.501h10.395v-53.039h-10.395zM187.46 408.62l-13.631-17.299-12.244 17.3h-14.672l20.373-27.164-18.737-25.924h14.226l11.203 16.209 12.49-16.209h14.128l-20.373 25.924 22.256 27.164zM229.404 355.462c-7.722.039-15.391 3.432-20.338 9.414-6.992 8.025-8.132 20.366-3.06 29.667 4.175 7.824 12.45 13.256 21.318 13.84 5.587.248 11.189.056 16.782.117h11.758c-.027-9.209.056-18.42-.041-27.626-.272-7.898-4.23-15.552-10.626-20.22-4.51-3.426-10.167-5.091-15.792-5.193zm0 42.525c-6.71.097-13.218-4.407-15.216-10.857-2.306-6.646.238-14.658 6.218-18.476 6.57-4.47 16.401-3.184 21.348 3.13 3.028 3.48 3.812 8.218 3.597 12.688v13.514h-15.833zM272.738 355.698v-21.262h-10.514c.028 16.14-.033 32.283.028 48.422.15 11.083 7.973 21.53 18.628 24.646 10.251 3.315 22.318-.346 28.803-9.003 7.942-9.902 7.269-25.55-1.696-34.597-5.426-5.95-13.642-8.605-21.556-8.207H272.74zm16.065 42.525c-7.259.138-14.204-5.208-15.63-12.375-.786-4.346-.3-8.79-.435-13.184v-6.453c5.91.062 11.828-.13 17.731.11 7.468.562 13.829 7.107 14.212 14.58.762 7.493-4.452 15.107-11.849 16.797-1.317.33-2.673.493-4.03.525zM348.016 355.462c-7.722.039-15.392 3.432-20.338 9.414-6.993 8.025-8.133 20.366-3.06 29.667 4.175 7.824 12.45 13.256 21.317 13.84 5.588.248 11.189.056 16.782.117h11.759c-.028-9.209.055-18.42-.042-27.626-.272-7.898-4.23-15.552-10.625-20.22-4.51-3.426-10.168-5.091-15.793-5.193zm0 42.525c-6.71.097-13.218-4.407-15.217-10.857-2.306-6.646.239-14.658 6.219-18.476 6.57-4.47 16.4-3.184 21.347 3.13 3.028 3.48 3.812 8.218 3.598 12.688v13.514h-15.834zM423.571 355.582c-.044 9.243.089 18.492-.07 27.732-.363 7.5-6.702 14.12-14.21 14.684-7.501.962-15.257-4.115-17.108-11.498-1.068-4.386-.465-8.937-.624-13.405v-17.514h-10.513c.038 9.285-.081 18.573.063 27.856.407 11.508 9.188 22.074 20.471 24.45 7.546 1.838 15.89.141 21.99-4.7.184 7.27-5.115 14.29-12.3 15.748-2.942.672-5.973.365-8.962.435v10.513c5.895.114 12.029-.004 17.351-2.887 8.948-4.46 14.67-14.278 14.425-24.239v-47.175H423.57z"/></g></g></svg>